<svg width="191" height="35" viewBox="0 0 191 35" fill="none" xmlns="http://www.w3.org/2000/svg">
<g filter="url(#filter0_d_0_1318)">
<path d="M186.268 25.741V19.4531H173.392V16.0597H183.747V10.171H173.392V7.07694H186.268V0.789034H165.994V25.741H186.268ZM163.811 15.4483V0.789034H156.425V15.0616C156.425 18.0059 154.678 19.8524 151.834 19.8524C148.889 19.8524 147.155 18.0059 147.155 15.0616V0.789034H139.757V15.4733C139.757 22.1604 144.298 26.3524 151.834 26.3524C159.269 26.3524 163.811 22.1604 163.811 15.4733V15.4483ZM130.674 8.97329L135.977 4.38212C134.068 2.18635 130.275 0.190186 124.973 0.190186C116.689 0.190186 111.599 5.57982 111.599 13.265C111.599 20.9503 116.689 26.2401 124.274 26.2401C129.464 26.2401 131.86 23.433 133.157 20.9378H133.469L131.872 25.7286H137.761V13.1652H130.475V17.6566C129.676 18.5923 128.179 19.7526 125.484 19.7526C121.642 19.7526 119.197 17.1576 119.197 13.265C119.197 9.37253 121.542 6.67771 125.185 6.67771C127.992 6.67771 129.776 7.87541 130.674 8.97329ZM96.5152 15.8601L98.9854 8.42435L101.456 15.8601H96.5152ZM93.2465 25.741L94.5689 21.7487H103.402L104.724 25.741H112.809L103.626 0.789034H94.3443L85.162 25.741H93.2465ZM83.5776 25.741V19.4531H70.7023V16.0597H81.0574V10.171H70.7023V7.07694H83.5776V0.789034H63.304V25.741H83.5776ZM48.9566 0.789034V19.3533H61.3328V25.741H41.5459V0.789034H48.9566ZM5.91441 0.764082H31.1783V8.29959L22.5824 15.8351H22.3827L24.1793 7.55103H13.4L5.91441 0.764082ZM22.0459 18.9541L29.5315 25.741H4.26758V18.2055L12.8511 10.67H13.0507L11.2541 18.9541H22.0459Z" fill="#18FFAC"/>
</g>
<defs>
<filter id="filter0_d_0_1318" x="0.267578" y="0.190186" width="192" height="34.3098" filterUnits="userSpaceOnUse" color-interpolation-filters="sRGB">
<feFlood flood-opacity="0" result="BackgroundImageFix"/>
<feColorMatrix in="SourceAlpha" type="matrix" values="0 0 0 0 0 0 0 0 0 0 0 0 0 0 0 0 0 0 127 0" result="hardAlpha"/>
<feOffset dy="4"/>
<feGaussianBlur stdDeviation="2"/>
<feComposite in2="hardAlpha" operator="out"/>
<feColorMatrix type="matrix" values="0 0 0 0 0 0 0 0 0 0 0 0 0 0 0 0 0 0 0.25 0"/>
<feBlend mode="normal" in2="BackgroundImageFix" result="effect1_dropShadow_0_1318"/>
<feBlend mode="normal" in="SourceGraphic" in2="effect1_dropShadow_0_1318" result="shape"/>
</filter>
</defs>
</svg>
